<svg width="236" height="136" viewBox="0 0 236 136" fill="none" xmlns="http://www.w3.org/2000/svg">
<g opacity="0.7">
<mask id="mask0" mask-type="alpha" maskUnits="userSpaceOnUse" x="0" y="0" width="236" height="136">
<rect width="235.419" height="134.97" transform="matrix(1 0 0 -1 0.47998 135.624)" fill="#C4C4C4"/>
</mask>
<g mask="url(#mask0)">
<path opacity="0.5" d="M66.4224 37.7711C71.4368 16.1662 91.7186 0.00195312 115.976 0.00195312C141.038 0.00195312 161.857 17.2571 165.978 39.9402C173.568 43.4066 180.11 48.6138 185.031 55.0166C188.149 54.2989 191.406 53.9185 194.757 53.9185C217.479 53.9185 235.899 71.4114 235.899 92.99C235.899 114.569 217.479 132.061 194.757 132.061C185.669 132.061 177.27 129.264 170.462 124.526C162.76 129.001 153.704 131.581 144.014 131.581C126.779 131.581 111.551 123.421 102.38 110.947C93.4203 124.594 77.4721 133.675 59.2904 133.675C31.266 133.675 8.54765 112.101 8.54765 85.487C8.54765 58.8734 31.266 37.2988 59.2904 37.2988C61.711 37.2988 64.0921 37.4598 66.4224 37.7711Z" fill="#DCF4FC"/>
<path opacity="0.34" d="M60.4446 40.0706L60.3419 40.5134L59.8914 40.4532C57.583 40.1449 55.224 39.9853 52.8255 39.9853C25.0526 39.9853 2.58281 61.3601 2.58281 87.6736C2.58281 113.987 25.0526 135.362 52.8255 135.362C70.8394 135.362 86.6303 126.365 95.4974 112.86L95.8921 112.258L96.3182 112.838C105.395 125.183 120.474 133.267 137.549 133.267C147.15 133.267 156.12 130.712 163.746 126.28L164.021 126.12L164.283 126.302C171.008 130.982 179.308 133.748 188.292 133.748C210.763 133.748 228.935 116.455 228.935 95.1765C228.935 73.8981 210.763 56.605 188.292 56.605C184.979 56.605 181.76 56.9811 178.678 57.6904L178.365 57.7625L178.169 57.5078C173.3 51.1707 166.823 46.0146 159.305 42.5815L159.068 42.473L159.021 42.2161C154.946 19.7845 134.346 2.68848 109.511 2.68848C85.4746 2.68848 65.4038 18.7036 60.4446 40.0706Z" fill="white" stroke="#56CCF2"/>
<path d="M145.867 108.936C148.361 108.431 152.632 109.406 155.651 110.543C153.158 108.496 150.177 105.286 149.366 102.875C148.586 100.555 148.371 99.1972 149.828 98.1714C150.83 97.4671 152.688 98.4197 154.252 98.1034C155.815 97.7872 156.838 96.2531 158.157 96.4902C160.075 96.833 160.738 98.1003 161.517 100.418C162.328 102.83 161.748 106.76 160.861 109.49C162.781 107.355 165.895 104.888 168.388 104.383C170.788 103.9 172.217 103.842 173.474 105.332C174.338 106.357 173.52 108.009 174.027 109.519C174.535 111.03 176.29 112.166 176.18 113.386C176.021 115.162 174.737 115.651 172.34 116.136C169.846 116.639 165.574 115.664 162.554 114.528C165.048 116.575 168.029 119.786 168.841 122.198C169.621 124.517 169.838 125.873 168.378 126.9C167.376 127.604 165.517 126.652 163.955 126.967C162.392 127.284 161.367 128.818 160.048 128.58C158.131 128.239 157.467 126.969 156.687 124.652C156.048 122.75 156.275 119.902 156.836 117.441C154.976 121.141 151.593 125.561 147.296 126.944C145.559 127.503 145.145 126.283 144.983 125.806C144.821 125.328 144.36 123.959 146.122 123.494C150.978 122.21 153.887 119.644 155.641 117.264C153.85 118.859 151.664 120.312 149.817 120.686C147.42 121.171 145.989 121.229 144.732 119.739C143.869 118.715 144.687 117.061 144.179 115.551C143.671 114.039 141.916 112.905 142.027 111.684C142.187 109.909 143.472 109.42 145.867 108.936Z" fill="#77B255"/>
<g opacity="0.3" filter="url(#filter0_f)">
<ellipse cx="110.284" cy="132.081" rx="77.4608" ry="10.0179" fill="url(#paint0_radial)"/>
</g>
<path d="M86.0219 93.9981C78.448 88.9866 71.0585 86.9433 64.3354 84.5201C57.8147 82.3567 51.9618 79.8065 52.0217 79.8537C52.6108 79.2029 36.1785 95.038 56.7503 115.414C66.1454 124.057 78.6642 127.407 87.8916 127.569C97.3558 127.855 103.531 124.939 105.585 123.951C108.068 124.532 110.619 125.041 113.223 125.476C113.854 125.628 115.814 125.78 116.196 125.01C116.552 124.292 114.809 123.622 114.192 123.48C111.807 122.79 109.495 122.044 107.262 121.25C107.275 117.121 99.875 102.517 86.0219 93.9981Z" fill="url(#paint1_linear)"/>
<path opacity="0.2" d="M69.2097 88.3746C75.1614 90.5396 80.0795 92.6858 84.7865 95.8269C98.1642 104.146 103.842 118.127 103.551 121.207C103.576 121.397 103.629 121.592 103.724 121.774C103.456 121.849 103.198 121.947 102.96 122.064C101.5 122.926 91.4659 127.37 77.6203 124.006C70.6147 122.315 64.1653 118.931 59.2243 114.558C49.3255 105.703 48.5129 96.0867 49.621 90.6893C50.3775 86.7277 52.0614 83.8715 53.1091 82.2958C56.3701 83.7254 62.7603 86.0832 69.2097 88.3746ZM70.1761 86.5485C61.2592 83.6368 52.1158 79.9634 52.0236 79.8459C52.6127 79.1951 36.1804 95.0302 56.7522 115.406C62.8143 120.915 70.3458 124.463 77.3116 126.161C92.1149 129.812 103.021 125.426 105.587 123.944C108.07 124.524 110.621 125.033 113.225 125.468C113.57 125.55 114.305 125.638 114.972 125.57C115.521 125.515 116.022 125.351 116.198 125.002C116.554 124.284 114.811 123.615 114.194 123.472C111.809 122.783 109.497 122.037 107.264 121.242C107.283 117.121 99.8756 102.516 86.0225 93.9972C80.4702 90.3489 75.2912 88.3572 70.1761 86.5485Z" fill="#424242"/>
<path opacity="0.2" d="M65.8961 118.96C75.9595 120.613 85.7983 120.597 94.9356 119.108C90.1722 117.113 85.7948 114.874 81.8034 112.47C72.7454 112.619 63.185 111.221 53.6448 108.08C62.8663 110.888 72.0272 112.052 80.642 111.773C76.4219 109.126 72.6686 106.293 69.3632 103.371C62.7793 102.544 56.0038 100.777 49.3002 97.9817C55.7966 100.502 62.3159 102.048 68.6093 102.711C65.1666 99.6271 62.2277 96.4434 59.7649 93.2611C56.6337 92.3823 53.4769 91.2429 50.3491 89.8394C53.3962 91.1063 56.4548 92.1199 59.4764 92.892C57.0089 89.6165 55.0485 86.3413 53.5379 83.1618C55.1453 86.3178 57.2127 89.5572 59.7676 92.7789C60.4817 90.5554 61.284 88.3918 62.1804 86.2964C61.3613 88.5064 60.6573 90.7958 60.0635 93.1495C62.5586 96.2458 65.5089 99.3324 68.9421 102.308C69.2588 97.6139 69.9023 93.0551 70.8645 88.6725C70.0845 93.2613 69.7094 98.0576 69.7619 103.023C73.1561 105.885 77.0023 108.636 81.2943 111.192C80.0567 104.907 79.3834 98.7614 79.2575 92.8016C79.6288 98.9587 80.6768 105.348 82.4423 111.879C86.441 114.207 90.8258 116.368 95.5906 118.279C92.7706 111.874 90.5471 105.523 88.9121 99.2662C91.0461 105.799 93.9784 112.452 97.744 119.128C99.6734 119.827 101.664 120.489 103.71 121.104C103.555 121.422 103.402 121.732 103.248 122.043C101.139 121.401 99.0917 120.714 97.1071 119.983C87.1689 121.364 76.5877 121.092 65.8961 118.96Z" fill="#424242"/>
<path d="M158.7 73.4754C160.402 70.5148 162.408 66.5153 163.066 64.0172C163.724 61.5191 168.151 56.5317 168.135 56.5553C168.393 56.761 157.863 53.1828 150.703 61.384C147.681 65.1138 146.72 69.8908 146.877 73.3573C146.993 76.9156 148.234 79.1642 148.653 79.9115C148.493 80.857 148.363 81.8263 148.261 82.8137C148.219 83.054 148.208 83.7932 148.506 83.9184C148.784 84.0352 148.994 83.3652 149.033 83.1302C149.235 82.219 149.461 81.3337 149.706 80.4768C151.256 80.3843 155.831 78.8752 158.7 73.4754Z" fill="url(#paint2_linear)"/>
<path opacity="0.2" d="M148.27 67.0454C148.156 70.8784 148.654 74.5441 149.665 77.875C150.171 76.0001 150.786 74.2569 151.483 72.6494C150.975 69.2811 151.018 65.6484 151.712 61.9361C151.126 65.513 151.15 68.9851 151.684 72.1817C152.46 70.4767 153.329 68.9364 154.252 67.5586C154.232 65.0637 154.551 62.4504 155.258 59.8125C154.644 62.3595 154.393 64.8662 154.461 67.2447C155.438 65.8077 156.477 64.5533 157.54 63.4765C157.711 62.2657 157.978 61.0324 158.345 59.7966C158.025 60.9955 157.8 62.186 157.664 63.3506C158.761 62.2674 159.884 61.3731 160.993 60.6514C159.897 61.4081 158.793 62.3403 157.72 63.4534C158.585 63.6085 159.431 63.7994 160.257 64.0288C159.392 63.8339 158.504 63.6859 157.597 63.5822C156.568 64.6668 155.565 65.9205 154.627 67.3486C156.393 67.2321 158.124 67.2441 159.805 67.3838C158.056 67.3224 156.25 67.4222 154.402 67.6899C153.505 69.0977 152.672 70.6686 151.934 72.3957C154.214 71.6205 156.471 71.0626 158.685 70.7179C156.409 71.1639 154.081 71.8737 151.735 72.8579C151.067 74.4644 150.481 76.2065 150.007 78.0776C152.253 76.7067 154.509 75.5608 156.759 74.6389C154.431 75.7605 152.098 77.1857 149.798 78.9226C149.634 79.6765 149.487 80.4514 149.36 81.2446C149.234 81.2028 149.11 81.1612 148.987 81.1196C149.121 80.3013 149.274 79.504 149.448 78.7279C148.437 75.0932 148.009 71.1363 148.27 67.0454Z" fill="#424242"/>
<path d="M150.669 125.463C150.669 129.122 147.407 132.081 143.379 132.081H96.8732C92.8504 132.081 89.5825 129.121 89.5825 125.463V65.8198C89.5825 62.1639 92.8504 59.2021 96.8732 59.2021H143.379C147.407 59.2021 150.669 62.1653 150.669 65.8198V125.463Z" fill="#F8D7C4"/>
<mask id="path-12-inside-1" fill="white">
<path d="M150.669 120.798C150.669 124.457 147.407 127.416 143.379 127.416H96.8732C92.8504 127.416 89.5825 124.456 89.5825 120.798V61.1549C89.5825 57.4989 92.8504 54.54 96.8732 54.54H143.379C147.407 54.54 150.669 57.5003 150.669 61.1549V120.798Z"/>
</mask>
<path d="M150.669 120.798C150.669 124.457 147.407 127.416 143.379 127.416H96.8732C92.8504 127.416 89.5825 124.456 89.5825 120.798V61.1549C89.5825 57.4989 92.8504 54.54 96.8732 54.54H143.379C147.407 54.54 150.669 57.5003 150.669 61.1549V120.798Z" fill="white"/>
<path d="M150.169 120.798C150.169 124.136 147.178 126.916 143.379 126.916V127.916C147.637 127.916 151.169 124.778 151.169 120.798H150.169ZM143.379 126.916H96.8732V127.916H143.379V126.916ZM96.8732 126.916C93.0796 126.916 90.0825 124.135 90.0825 120.798H89.0825C89.0825 124.777 92.6213 127.916 96.8732 127.916V126.916ZM90.0825 120.798V61.1549H89.0825V120.798H90.0825ZM90.0825 61.1549C90.0825 57.82 93.0794 55.04 96.8732 55.04V54.04C92.6215 54.04 89.0825 57.1778 89.0825 61.1549H90.0825ZM96.8732 55.04H143.379V54.04H96.8732V55.04ZM143.379 55.04C147.178 55.04 150.169 57.8211 150.169 61.1549H151.169C151.169 57.1796 147.636 54.04 143.379 54.04V55.04ZM150.169 61.1549V120.798H151.169V61.1549H150.169Z" fill="black" mask="url(#path-12-inside-1)"/>
<path d="M140.295 58.5444C140.295 58.545 140.295 58.5497 140.288 58.5602C140.281 58.5716 140.268 58.5878 140.243 58.6077C140.193 58.6481 140.111 58.6927 139.994 58.7384C139.76 58.8293 139.416 58.9137 138.981 58.9854C138.113 59.1287 136.91 59.218 135.58 59.218H104.679C103.346 59.218 102.142 59.1287 101.273 58.9854C100.838 58.9137 100.493 58.8293 100.26 58.7384C100.142 58.6927 100.061 58.6481 100.01 58.6077C99.9856 58.5878 99.9719 58.5716 99.9649 58.5602C99.9585 58.5499 99.9585 58.5451 99.9585 58.5444L99.9585 58.5444V51.3553C99.9585 51.3546 99.9588 51.3324 100.011 51.2905C100.061 51.2499 100.143 51.2052 100.26 51.1594C100.493 51.0684 100.838 50.9841 101.273 50.9126C102.142 50.7699 103.346 50.6816 104.679 50.6816H135.58C136.91 50.6816 138.113 50.7699 138.981 50.9126C139.416 50.9841 139.76 51.0684 139.994 51.1594C140.111 51.2052 140.193 51.2499 140.243 51.2905C140.295 51.3324 140.295 51.3546 140.295 51.3553V58.5444Z" fill="#3F879E" stroke="#C4C4C4" stroke-width="0.25"/>
<path d="M112.986 70.258H139.102C140.859 70.258 140.859 67.791 139.102 67.791H112.986C111.235 67.791 111.235 70.258 112.986 70.258Z" fill="#35494D"/>
<path d="M112.986 75.0773H139.101C140.859 75.0773 140.859 72.6104 139.101 72.6104H112.986C111.235 72.6104 111.235 75.0773 112.986 75.0773Z" fill="#35494D"/>
<path d="M112.289 79.8976H124.544C125.369 79.8976 125.369 77.4307 124.544 77.4307H112.289C111.467 77.4307 111.467 79.8976 112.289 79.8976Z" fill="#35494D"/>
<path d="M112.986 90.7599H139.102C140.859 90.7599 140.859 88.293 139.102 88.293H112.986C111.235 88.293 111.235 90.7599 112.986 90.7599Z" fill="#35494D"/>
<path d="M112.986 95.5792H139.101C140.859 95.5792 140.859 93.1123 139.101 93.1123H112.986C111.235 93.1123 111.235 95.5792 112.986 95.5792Z" fill="#35494D"/>
<path d="M112.289 100.398H124.544C125.369 100.398 125.369 97.9307 124.544 97.9307H112.289C111.467 97.9307 111.467 100.398 112.289 100.398Z" fill="#35494D"/>
<path d="M112.986 111.265H139.102C140.859 111.265 140.859 108.798 139.102 108.798H112.986C111.235 108.798 111.235 111.265 112.986 111.265Z" fill="#35494D"/>
<path d="M112.986 116.084H139.101C140.859 116.084 140.859 113.617 139.101 113.617H112.986C111.235 113.617 111.235 116.084 112.986 116.084Z" fill="#35494D"/>
<path d="M112.289 120.904H124.545C125.37 120.904 125.37 118.438 124.545 118.438H112.289C111.467 118.438 111.467 120.904 112.289 120.904Z" fill="#35494D"/>
<rect x="95.2495" y="68.291" width="9.75811" height="9.75811" stroke="#35494D"/>
<rect x="95.2495" y="88.793" width="9.75811" height="9.75811" stroke="#35494D"/>
<rect x="95.2495" y="109.298" width="9.75811" height="9.75811" stroke="#35494D"/>
<path d="M104.684 68.1336C103.127 69.4811 101.81 70.7639 100.604 72.4375C100.072 73.1756 99.4803 74.0445 99.0937 74.8647C98.8729 75.2997 98.4751 75.9794 98.3394 76.6328C97.5976 75.9426 96.8007 75.1593 95.9854 74.5457C95.4043 74.1085 93.7305 74.9998 94.4119 75.5125C95.633 76.4309 96.6485 77.5749 97.8362 78.5343C98.333 78.9352 99.4339 78.0647 99.6927 77.6995C100.542 76.4963 100.658 75.0255 101.277 73.713C102.222 71.7058 103.898 70.0569 105.553 68.625C106.649 67.6025 105.517 67.4139 104.685 68.1336" fill="#1E89C6"/>
<path d="M104.683 88.7254C103.126 90.0729 101.809 91.3557 100.603 93.0293C100.071 93.7674 99.4793 94.6363 99.0927 95.4565C98.872 95.8915 98.4741 96.5712 98.3385 97.2246C97.5966 96.5344 96.7998 95.7511 95.9845 95.1375C95.4033 94.7003 93.7296 95.5916 94.4109 96.1043C95.632 97.0227 96.6475 98.1667 97.8352 99.1261C98.332 99.527 99.433 98.6565 99.6917 98.2913C100.541 97.0881 100.657 95.6173 101.276 94.3048C102.221 92.2976 103.897 90.6487 105.552 89.2168C106.648 88.1943 105.516 88.0057 104.684 88.7254" fill="#1E89C6"/>
<path d="M104.684 109.23C103.127 110.578 101.81 111.861 100.604 113.534C100.072 114.272 99.4803 115.141 99.0937 115.961C98.8729 116.396 98.4751 117.076 98.3394 117.73C97.5976 117.039 96.8007 116.256 95.9854 115.642C95.4043 115.205 93.7305 116.097 94.4119 116.609C95.633 117.528 96.6485 118.672 97.8362 119.631C98.333 120.032 99.4339 119.161 99.6927 118.796C100.542 117.593 100.658 116.122 101.277 114.81C102.222 112.802 103.898 111.154 105.553 109.722C106.649 108.699 105.517 108.511 104.685 109.23" fill="#1E89C6"/>
<path d="M23.3793 84.3203C24.1282 86.3339 25.8183 87.8358 25.9063 90.1901C26.9104 92.5494 27.8995 93.1848 30.0684 94.7755L27.3927 98.7152L22.1902 97.1603C18.5069 96.3698 16.4164 92.7463 15.2352 90.699L15.2039 90.6446C13.7174 88.0687 13.7174 85.381 14.1633 84.3203C15.5011 83.3713 17.2849 84.1091 18.92 85.6443C21.2983 87.8773 22.1902 88.8978 22.9334 88.8978C23.3663 87.3192 22.842 87.9672 22.4875 86.1386C21.5956 85.1897 22.6247 83.4134 23.3793 84.3203Z" fill="#FFAF7E"/>
<path d="M50.4955 99.8421C50.4955 99.8421 45.0983 101.64 44.0189 101.775C42.9394 101.91 30.256 93.4577 28.1421 92.6934C27.8272 95.2111 25.5784 97.9088 25.3535 97.9088C26.9277 98.763 31.4704 103.304 34.079 105.327C36.6877 107.35 42.2198 109.464 43.9739 109.329C45.728 109.194 52.8793 106.541 52.8793 106.541L50.4955 99.8421Z" fill="white"/>
<path d="M43.9734 107.395C42.2193 107.53 36.7322 105.462 34.0785 103.393C31.8747 101.685 28.4114 98.268 26.3875 96.6494C25.8927 97.3688 25.443 97.8184 25.353 97.8184C26.9272 98.6726 31.4699 103.214 34.0785 105.237C36.6872 107.26 42.2193 109.373 43.9734 109.238C45.7275 109.103 52.8788 106.451 52.8788 106.451L52.2941 104.787C50.54 105.462 45.4127 107.305 43.9734 107.395Z" fill="#EAEAEA"/>
<path d="M77.2564 89.7266H68.8458C68.8458 89.7266 61.3346 92.5141 59.4006 93.4583C56.9719 94.6272 52.0694 97.145 46.4023 99.6628C50.2254 103.439 53.4637 111.308 53.4637 111.308C53.4637 111.308 58.0963 108.34 59.8504 108.34C61.3346 109.959 61.0648 119.131 59.6705 126.279C58.1863 134.057 66.462 134.642 66.462 134.642C66.462 134.642 68.8008 135.092 74.9626 135.586C75.8172 135.676 77.0765 135.451 77.7512 135.541L77.2564 89.7266Z" fill="#054068"/>
<path d="M77.2564 89.7266H68.8458C68.8458 89.7266 61.3346 92.5141 59.4006 93.4583C56.9719 94.6272 52.0694 97.145 46.4023 99.6628C50.2254 103.439 53.4637 111.308 53.4637 111.308C53.4637 111.308 58.0963 108.34 59.8504 108.34C60.2102 108.205 60.5251 108.16 60.8399 108.205C62.2792 104.878 62.1442 101.551 60.4801 98.1791C62.3241 101.326 63.2237 105.103 62.0992 108.79C64.0332 110.813 64.0782 117.377 63.0438 122.907C61.5595 130.685 64.1682 132.304 66.9567 133.608C68.8907 134.507 68.8458 134.282 74.9626 134.777C75.8172 134.867 77.0765 134.642 77.7512 134.732L77.2564 89.7266Z" fill="#094D84"/>
<path d="M71.0946 97.8194C72.7138 95.1668 73.7932 91.9746 76.3119 89.7266H68.8458C68.8458 89.7266 61.6045 92.2443 59.4006 93.4583C57.5116 94.4924 51.7996 97.2799 46.4023 99.6628C47.8416 101.102 49.2359 103.26 49.2359 103.26C49.3708 102.99 62.3691 96.8303 68.8008 93.3683C69.4305 95.0319 70.5549 96.1559 71.0946 97.8194Z" fill="#054068"/>
<path d="M128.807 83.873C128.058 85.8867 126.368 87.3885 126.28 89.7428C125.276 92.1021 124.287 92.7375 122.118 94.3282L124.794 98.2679L129.996 96.713C133.68 95.9226 135.77 92.2991 136.951 90.2517L136.983 90.1974C138.469 87.6214 138.469 84.9337 138.023 83.873C136.685 82.924 134.902 83.6618 133.267 85.197C130.888 87.4301 129.996 88.4506 129.253 88.4506C128.82 86.8719 129.345 87.52 129.699 85.6914C130.591 84.7424 129.562 82.9661 128.807 83.873Z" fill="#FFAF7E"/>
<path d="M101.499 99.844C101.499 99.844 106.897 101.642 107.976 101.777C109.056 101.912 121.739 93.4596 123.853 92.6953C124.168 95.2131 126.417 97.9107 126.642 97.9107C125.067 98.765 120.525 103.306 117.916 105.329C115.307 107.352 109.775 109.466 108.021 109.331C106.267 109.196 99.1157 106.543 99.1157 106.543L101.499 99.844Z" fill="white"/>
<path d="M125.606 96.7422C123.672 98.1809 119.849 101.958 117.51 103.756C114.902 105.779 109.37 107.892 107.615 107.757C106.221 107.623 101.454 105.959 99.5196 105.285L99.0698 106.544C99.0698 106.544 106.266 109.151 107.975 109.331C109.729 109.466 115.216 107.398 117.87 105.33C120.479 103.306 125.021 98.7204 126.596 97.9112C126.551 97.8662 126.146 97.4166 125.606 96.7422Z" fill="#EAEAEA"/>
<path d="M74.7381 89.7285H83.1487C83.1487 89.7285 90.6599 92.5161 92.5939 93.4602C95.0226 94.6292 99.9251 97.147 105.592 99.6648C101.814 103.441 98.5308 111.309 98.5308 111.309C98.5308 111.309 93.2235 108.567 92.0991 108.342C90.6149 109.961 88.456 116.03 91.1096 124.348C93.6283 132.261 85.4875 134.329 85.4875 134.329C85.4875 134.329 83.1937 135.094 77.0319 135.588C76.1773 135.678 75.3228 135.588 74.5132 135.543L74.7381 89.7285Z" fill="#054068"/>
<path d="M98.4858 111.309C98.4858 111.309 101.769 103.486 105.547 99.6648C99.8801 97.147 95.0226 94.6292 92.5489 93.4602C90.6149 92.5161 83.1038 89.7285 83.1038 89.7285H74.6931L74.5132 134.689C75.3228 134.734 76.1773 134.779 77.0319 134.734C83.1937 134.239 85.4875 133.475 85.4875 133.475C85.4875 133.475 91.2895 132.396 88.7259 124.483C86.3421 117.109 88.2761 109.781 91.0197 108.522C90.6149 105.105 90.8398 101.733 92.9087 98.6307C91.3795 101.733 91.1546 105.15 91.9642 108.297C92.0092 108.297 92.0541 108.297 92.0991 108.297C93.1786 108.567 98.4858 111.309 98.4858 111.309Z" fill="#094D84"/>
<path d="M80.8994 97.8214C79.2803 95.1687 78.2008 91.9765 75.6821 89.7285H83.1483C83.1483 89.7285 90.3895 92.2463 92.5934 93.4602C94.4824 94.4943 100.194 97.2819 105.592 99.6648C104.152 101.103 102.758 103.262 102.758 103.262C102.623 102.992 89.6249 96.8323 83.1932 93.3703C82.5636 95.0338 81.4392 96.1578 80.8994 97.8214Z" fill="#054068"/>
<path d="M76.5831 92.2461H74.5591V135.363H76.5831V92.2461Z" fill="#054068"/>
<path d="M71.3501 82.7754H79.4325L81.6776 92.2049H70.2275L71.3501 82.7754Z" fill="#FFAF7E"/>
<path d="M82.4748 86.8955L75.5034 92.2458C77.0326 93.5496 79.0566 97.4162 78.9666 98.81C80.271 95.348 82.7897 90.8071 83.5093 90.3575C83.0146 88.3792 82.4748 86.8955 82.4748 86.8955Z" fill="white"/>
<path d="M68.7112 86.8955L75.6826 92.2458C74.1534 93.5496 72.1295 97.4162 72.2194 98.81C70.9151 95.348 68.3964 90.8071 67.6768 90.3575C68.1715 88.3792 68.7112 86.8955 68.7112 86.8955Z" fill="white"/>
<path d="M88.7573 68.019C89.456 79.6 83.0308 87.813 76.0837 88.2849C68.3647 88.8093 62.0337 81.463 61.335 69.882C60.3449 53.4713 64.2815 51.5912 73.8308 50.9425C83.3801 50.2937 88.2314 50.3092 88.7573 68.019Z" fill="#FFD6BE"/>
<path d="M88.8655 66.8575C89.6003 79.0365 83.2185 87.6479 76.2909 88.1186C68.5935 88.6415 62.41 82.1845 61.6753 70.0056C60.6341 52.7475 64.3992 49.4951 73.9217 48.8481C83.4443 48.2012 88.2831 48.2354 88.8655 66.8575Z" fill="#F8B48B"/>
<path d="M85.4285 54.9173C83.1734 54.0965 80.2832 54.2294 76.7353 54.4497C67.3219 55.0342 63.6 57.9731 64.6292 73.5669C65.0158 79.4236 66.928 83.8159 69.7795 86.5724C65.3282 84.3252 62.1817 79.1559 61.6734 71.4544C60.6441 55.8605 64.366 52.9217 73.7794 52.3371C79.1354 52.0045 82.9924 51.8712 85.4285 54.9173Z" fill="#FFAF7E"/>
<path d="M74.9541 88.2865C81.8817 87.8158 88.2634 79.2044 87.5287 67.0254C87.0554 51.893 83.7715 49.0347 77.4478 48.842C84.8027 48.6564 88.5913 50.6843 89.1024 67.0255C89.8372 79.2044 83.4554 87.8159 76.5278 88.2865C75.9716 88.3243 75.4232 88.3257 74.8843 88.291C74.9075 88.2896 74.9308 88.2881 74.9541 88.2865Z" fill="#FFAF7E"/>
<path d="M87.9005 53.5505C87.8217 52.7758 87.6492 52.0429 87.4194 51.4203C85.5508 50.1999 83.5291 49.0963 81.3712 48.9237C79.0835 48.7246 76.7745 48.7042 74.4804 48.9309C72.2183 49.1555 69.6177 49.084 67.5344 50.1474C66.5704 50.6384 65.5766 51.1668 64.6829 51.7594C64.0062 52.2309 63.6423 53.1065 63.0039 53.6818C62.9124 53.7589 62.7635 53.9463 62.8294 53.9773C61.1186 56.4336 60.4106 67.0124 60.7831 67.8735C61.3748 69.1807 61.7431 71.5667 61.7431 71.5667L62.4177 71.5918C62.4177 71.5918 62.9089 65.9208 63.0982 64.2769C63.2343 62.814 64.0515 62.0139 67.3115 58.6722C79.1484 63.1865 85.9195 58.4363 85.9195 58.4363C85.8814 61.5236 87.5494 65.7405 87.9517 67.0959C88.354 68.4514 88.2593 73.8429 88.2593 73.8429L89.1041 74.0337C89.1041 74.0337 89.3699 70.4699 90.9085 69.9399C91.2105 67.5083 91.9376 55.12 87.9005 53.5505Z" fill="#4D3A2D"/>
<path d="M86.704 58.7866C86.704 58.7866 82.7281 62.8168 75.5348 61.8088C68.3415 60.8008 67.068 62.6302 64.1491 63.9771C65.0712 61.2572 62.7941 60.3758 68.2716 57.124C67.8216 56.702 62.3229 58.1302 61.1986 59.6685C61.1704 58.7306 61.6794 57.5854 65.2803 54.9255C63.6557 53.816 62.0658 54.6566 61.2732 52.3089C65.0592 52.6276 65.6399 50.7549 68.733 48.0735C71.9827 45.1726 74.8552 46.6177 78.192 48.4446C77.0873 47.023 75.2393 46.4176 74.0387 46.2207C76.2979 45.1971 81.9637 45.7519 85.2893 49.7375C85.4489 49.1002 83.0453 47.4134 81.6682 46.6368C83.5641 47.0997 86.8147 47.8517 87.147 50.3146C87.2957 51.4163 87.5002 49.7878 87.5002 49.7878C87.5002 49.7878 88.1736 51.9951 88.1152 52.8541C88.423 51.9023 88.3747 51.7672 88.0889 50.5501C91.7401 53.135 87.6476 57.5391 86.704 58.7866Z" fill="#443226"/>
<path d="M86.1189 59.1396C86.1189 59.1396 82.1732 63.6695 74.9679 62.4626C67.7626 61.2557 67.4712 62.7924 64.5614 64.292C64.7677 63.4889 66.7303 56.6401 67.6631 57.0896C67.2095 56.6075 63.761 58.5205 62.6484 60.253C62.6126 59.1903 63.8025 55.0243 64.6526 54.572C63.7506 54.6333 69.2235 53.722 68.8366 51.7578C68.5986 50.5496 63.5428 52.596 66.6161 49.5862C69.8443 46.3292 77.5193 47.3464 77.5193 47.3464L80.4779 48.4581C80.4779 48.4581 81.2715 44.3299 84.6308 48.8752C84.7855 48.1546 82.4254 45.1589 82.4254 45.1589C82.4254 45.1589 86.3551 48.837 86.5397 51.4282C86.8869 50.6156 86.3638 47.574 86.3638 47.574C86.3638 47.574 87.4585 52.1153 86.905 53.7309C87.4614 53.1014 87.7563 50.951 87.7563 50.951C87.7563 50.951 87.053 57.7348 86.1189 59.1396Z" fill="#443226" fill-opacity="0.3"/>
<g filter="url(#filter1_f)">
<ellipse rx="3.1123" ry="0.98914" transform="matrix(0.985589 -0.173838 0.154634 0.987247 82.9978 75.8935)" fill="#FBA3A3" fill-opacity="0.35"/>
</g>
<g filter="url(#filter2_f)">
<ellipse rx="3.11676" ry="0.987877" transform="matrix(0.99063 0.125656 -0.112078 0.994989 68.5388 76.5533)" fill="#FBA3A3" fill-opacity="0.35"/>
</g>
<path d="M78.648 67.1305C79.3461 66.3382 81.1069 65.8999 82.9524 66.1289C84.7999 66.3818 84.6585 67.7951 84.6457 68.2547C84.2433 67.2809 83.6078 66.6678 82.2825 66.9426C80.9572 67.2175 79.3809 67.9513 78.9004 67.9019C78.422 67.8765 78.5031 67.2895 78.648 67.1305Z" fill="#443226"/>
<path d="M71.9387 67.2204C71.151 66.529 69.3519 66.3326 67.5491 66.8094C65.747 67.3103 66.0571 68.6928 66.125 69.147C66.4071 68.1267 66.9637 67.4325 68.3112 67.5258C69.6587 67.6191 71.3104 68.1336 71.781 68.0196C72.2525 67.9297 72.1015 67.3585 71.9387 67.2204Z" fill="#443226"/>
<path d="M70.8179 80.3291C73.7107 82.4293 77.6163 82.5487 80.9032 79.6439" stroke="black"/>
<ellipse rx="1.52132" ry="4.01532" transform="matrix(0.929684 0.360396 -0.326374 0.948071 89.2552 71.8902)" fill="#FFAF7E"/>
<path d="M88.4809 73.4188C88.9797 72.946 89.1557 72.7105 88.8128 71.8764C88.7054 71.4332 88.9223 69.5261 89.361 69.2841C91.376 68.1239 90.2818 71.9564 89.2748 73.7194C89.0852 74.0316 87.8813 75.0843 87.6605 74.3437C87.4396 73.6031 87.982 73.8917 88.4809 73.4188Z" fill="#F2A77E"/>
<ellipse rx="1.50759" ry="4.04852" transform="matrix(-0.981281 0.197611 0.175886 0.983521 61.5574 71.3881)" fill="#FFAF7E"/>
<path d="M61.7738 73.0323C61.3537 72.48 61.216 72.2173 61.6818 71.4532C61.8554 71.0343 61.9325 69.1151 61.5365 68.8009C59.7252 67.3096 60.2199 71.2796 60.9445 73.1924C61.0839 73.5331 62.1112 74.7789 62.4422 74.086C62.7732 73.3931 62.1939 73.5846 61.7738 73.0323Z" fill="#F2A77E"/>
<ellipse rx="1.20201" ry="2.37641" transform="matrix(0.982764 0.175008 -0.0932517 0.996793 80.467 71.1768)" fill="black"/>
<ellipse rx="0.466749" ry="0.577105" transform="matrix(0.999145 0.0197474 -0.017559 1.00043 80.089 71.3307)" fill="#F2F2F2"/>
<ellipse rx="1.19933" ry="2.37941" transform="matrix(0.996709 0.0674305 0.00343777 1.00042 70.0004 71.3822)" fill="black"/>
<ellipse cx="70.4093" cy="71.8118" rx="0.466431" ry="0.577455" fill="#F2F2F2"/>
<path d="M200.37 30.5068C208.19 30.5068 214.529 24.1676 214.529 16.3477C214.529 8.52776 208.19 2.18848 200.37 2.18848C192.55 2.18848 186.211 8.52776 186.211 16.3477C186.211 24.1676 192.55 30.5068 200.37 30.5068Z" fill="url(#paint3_linear)"/>
<path d="M201.317 7.80398C201.317 7.3084 200.916 6.90723 200.42 6.90723H200.326C199.83 6.90723 199.429 7.3084 199.429 7.80398V15.4499C199.429 15.9455 199.83 16.3467 200.326 16.3467H200.42C200.916 16.3467 201.317 15.9455 201.317 15.4499V7.80398Z" fill="#424242"/>
<path d="M200.3 16.368L200.382 16.3232C200.59 16.2075 200.744 16.0141 200.809 15.7854C200.875 15.5567 200.847 15.3113 200.732 15.1031L198.258 10.6501C198.143 10.4422 197.949 10.2886 197.721 10.2232C197.492 10.1577 197.246 10.1856 197.038 10.3008L196.956 10.3456C196.748 10.4613 196.594 10.6547 196.529 10.8835C196.463 11.1122 196.491 11.3575 196.606 11.5657L199.08 16.0188C199.137 16.1219 199.214 16.2127 199.306 16.2861C199.398 16.3594 199.504 16.4139 199.617 16.4463C199.731 16.4788 199.849 16.4885 199.966 16.4751C200.083 16.4617 200.197 16.4253 200.3 16.368Z" fill="#424242"/>
<path d="M200.372 17.9991C201.284 17.9991 202.024 17.2595 202.024 16.3472C202.024 15.4349 201.284 14.6953 200.372 14.6953C199.46 14.6953 198.72 15.4349 198.72 16.3472C198.72 17.2595 199.46 17.9991 200.372 17.9991Z" fill="#424242"/>
<path d="M200.372 17.0556C200.763 17.0556 201.08 16.7386 201.08 16.3476C201.08 15.9566 200.763 15.6396 200.372 15.6396C199.981 15.6396 199.664 15.9566 199.664 16.3476C199.664 16.7386 199.981 17.0556 200.372 17.0556Z" fill="white"/>
<path d="M189.019 17.3215C189.54 17.3215 189.963 16.8989 189.963 16.3775C189.963 15.8562 189.54 15.4336 189.019 15.4336C188.497 15.4336 188.075 15.8562 188.075 16.3775C188.075 16.8989 188.497 17.3215 189.019 17.3215Z" fill="#757575"/>
<path d="M200.347 5.99531C200.869 5.99531 201.291 5.57269 201.291 5.05137C201.291 4.53004 200.869 4.10742 200.347 4.10742C199.826 4.10742 199.403 4.53004 199.403 5.05137C199.403 5.57269 199.826 5.99531 200.347 5.99531Z" fill="#757575"/>
<path d="M200.347 28.6496C200.869 28.6496 201.291 28.227 201.291 27.7057C201.291 27.1843 200.869 26.7617 200.347 26.7617C199.826 26.7617 199.403 27.1843 199.403 27.7057C199.403 28.227 199.826 28.6496 200.347 28.6496Z" fill="#757575"/>
<path d="M211.672 17.3215C212.193 17.3215 212.616 16.8989 212.616 16.3775C212.616 15.8562 212.193 15.4336 211.672 15.4336C211.151 15.4336 210.728 15.8562 210.728 16.3775C210.728 16.8989 211.151 17.3215 211.672 17.3215Z" fill="#757575"/>
<path opacity="0.2" d="M200.37 3.13242C207.657 3.13242 213.585 9.0604 213.585 16.3477C213.585 23.6349 207.657 29.5629 200.37 29.5629C193.083 29.5629 187.155 23.6349 187.155 16.3477C187.155 9.0604 193.083 3.13242 200.37 3.13242ZM200.37 2.18848C192.55 2.18848 186.211 8.52707 186.211 16.3477C186.211 24.1683 192.55 30.5068 200.37 30.5068C208.191 30.5068 214.529 24.1683 214.529 16.3477C214.529 8.52707 208.191 2.18848 200.37 2.18848Z" fill="#424242"/>
<rect x="26.3018" y="133.794" width="187.845" height="1.83001" rx="0.915007" fill="url(#paint4_linear)"/>
</g>
</g>
<defs>
<filter id="filter0_f" x="28.8232" y="118.063" width="162.922" height="28.0358" filterUnits="userSpaceOnUse" color-interpolation-filters="sRGB">
<feFlood flood-opacity="0" result="BackgroundImageFix"/>
<feBlend mode="normal" in="SourceGraphic" in2="BackgroundImageFix" result="shape"/>
<feGaussianBlur stdDeviation="2" result="effect1_foregroundBlur"/>
</filter>
<filter id="filter1_f" x="75.9263" y="70.7773" width="14.1427" height="10.2332" filterUnits="userSpaceOnUse" color-interpolation-filters="sRGB">
<feFlood flood-opacity="0" result="BackgroundImageFix"/>
<feBlend mode="normal" in="SourceGraphic" in2="BackgroundImageFix" result="shape"/>
<feGaussianBlur stdDeviation="2" result="effect1_foregroundBlur"/>
</filter>
<filter id="filter2_f" x="61.4492" y="71.4951" width="14.1792" height="10.1167" filterUnits="userSpaceOnUse" color-interpolation-filters="sRGB">
<feFlood flood-opacity="0" result="BackgroundImageFix"/>
<feBlend mode="normal" in="SourceGraphic" in2="BackgroundImageFix" result="shape"/>
<feGaussianBlur stdDeviation="2" result="effect1_foregroundBlur"/>
</filter>
<radialGradient id="paint0_radial" cx="0" cy="0" r="1" gradientUnits="userSpaceOnUse" gradientTransform="translate(110.284 132.081) rotate(90) scale(31.8494 81.6483)">
<stop stop-color="#6F6F6F"/>
<stop offset="1" stop-color="#6F6F6F" stop-opacity="0"/>
</radialGradient>
<linearGradient id="paint1_linear" x1="122.256" y1="106.982" x2="35.2818" y2="103.48" gradientUnits="userSpaceOnUse">
<stop stop-color="#9CCC65"/>
<stop offset="0.008" stop-color="#9BCB64"/>
<stop offset="0.528" stop-color="#76AB44"/>
<stop offset="0.802" stop-color="#689F38"/>
</linearGradient>
<linearGradient id="paint2_linear" x1="154.584" y1="85.5449" x2="153.843" y2="52.824" gradientUnits="userSpaceOnUse">
<stop stop-color="#9CCC65"/>
<stop offset="0.008" stop-color="#9BCB64"/>
<stop offset="0.528" stop-color="#76AB44"/>
<stop offset="0.802" stop-color="#689F38"/>
</linearGradient>
<linearGradient id="paint3_linear" x1="200.37" y1="5.9055" x2="200.37" y2="27.6726" gradientUnits="userSpaceOnUse">
<stop offset="0.321" stop-color="#ECEFF1"/>
<stop offset="1" stop-color="#B0BEC5"/>
</linearGradient>
<linearGradient id="paint4_linear" x1="93.0084" y1="140.144" x2="230.299" y2="126.67" gradientUnits="userSpaceOnUse">
<stop stop-color="#828282"/>
<stop offset="1" stop-color="#B3880C" stop-opacity="0"/>
</linearGradient>
</defs>
</svg>
