<svg width="101" height="101" viewBox="0 0 101 101" fill="none" xmlns="http://www.w3.org/2000/svg">
<path d="M100.426 50.2529C100.426 82.498 97.3286 100.253 50.4257 100.253C3.52272 100.253 0.425659 81.3665 0.425659 50.2529C0.425659 19.1394 5.03136 0.25293 50.4257 0.25293C95.82 0.25293 100.426 18.0079 100.426 50.2529Z" fill="url(#paint0_linear)"/>
<path d="M31.7351 17.1814C28.6975 17.1814 26.2351 19.6438 26.2351 22.6814V76.0147C26.2351 79.0523 28.6975 81.5147 31.7351 81.5147H72.1904C75.2279 81.5147 77.6904 79.0523 77.6904 76.0147V22.6814C77.6904 19.6438 75.2279 17.1814 72.1903 17.1814H31.7351Z" fill="#C5E7FF" stroke="#0C24A6"/>
<path d="M30.1978 18.0862C27.1602 18.0862 24.6978 20.5486 24.6978 23.5862V76.9195C24.6978 79.9571 27.1602 82.4195 30.1978 82.4195H70.653C73.6906 82.4195 76.153 79.9571 76.153 76.9195V23.5862C76.153 20.5486 73.6906 18.0862 70.653 18.0862H30.1978Z" fill="#C5E7FF" stroke="#0C24A6"/>
<path d="M27.8218 19.1858C27.6071 19.7433 27.4894 20.349 27.4894 20.9821V74.3155C27.4894 77.0769 29.728 79.3155 32.4894 79.3155H72.9447C73.8046 79.3155 74.6139 79.0984 75.3206 78.716C74.599 80.5899 72.7813 81.9196 70.653 81.9196H30.1978C27.4363 81.9196 25.1978 79.6811 25.1978 76.9196V23.5863C25.1978 21.6848 26.2592 20.0313 27.8218 19.1858Z" fill="#7B92EE"/>
<path d="M35.4338 63.6771C34.6479 63.6771 34.0246 63.4603 33.5639 63.0267C33.1303 62.5931 32.9135 61.9833 32.9135 61.1974V37.4984C32.9135 36.7125 33.1303 36.1028 33.5639 35.6692C34.0246 35.2356 34.6479 35.0188 35.4338 35.0188H50.1084C50.8943 35.0188 51.5041 35.1949 51.9377 35.5472C52.3713 35.8996 52.5881 36.4009 52.5881 37.0513C52.5881 37.7288 52.3713 38.2572 51.9377 38.6367C51.5041 38.989 50.8943 39.1651 50.1084 39.1651H38.0354V47.0512H49.2954C50.0813 47.0512 50.6911 47.2274 51.1247 47.5797C51.5583 47.932 51.7751 48.4469 51.7751 49.1244C51.7751 49.7748 51.5583 50.2761 51.1247 50.6284C50.6911 50.9807 50.0813 51.1569 49.2954 51.1569H38.0354V59.5308H50.1084C50.8943 59.5308 51.5041 59.7205 51.9377 60.0999C52.3713 60.4522 52.5881 60.9671 52.5881 61.6446C52.5881 62.295 52.3713 62.7963 51.9377 63.1486C51.5041 63.5009 50.8943 63.6771 50.1084 63.6771H35.4338Z" fill="#7B92EE"/>
<path d="M70.0696 45.6672C70.5377 45.6672 70.9054 45.8177 71.1729 46.1186C71.4571 46.4028 71.5992 46.7872 71.5992 47.272V61.9909C71.5992 62.4757 71.4571 62.8685 71.1729 63.1694C70.8887 63.4703 70.521 63.6208 70.0696 63.6208C69.5347 63.6208 69.1251 63.4285 68.841 63.0441L59.6887 51.1335V61.9909C59.6887 62.4757 59.5549 62.8685 59.2875 63.1694C59.02 63.4703 58.6522 63.6208 58.1842 63.6208C57.7161 63.6208 57.3483 63.4703 57.0809 63.1694C56.8134 62.8685 56.6797 62.4757 56.6797 61.9909V47.272C56.6797 46.7872 56.8218 46.4028 57.106 46.1186C57.3901 45.8177 57.7663 45.6672 58.2343 45.6672C58.7525 45.6672 59.1537 45.8595 59.4379 46.244L68.5651 58.1043V47.272C68.5651 46.7872 68.6989 46.4028 68.9663 46.1186C69.2505 45.8177 69.6183 45.6672 70.0696 45.6672Z" fill="#7B92EE"/>
<path d="M64.4548 28.5896H63.2788V24.0567L61.875 24.4921V23.5359L64.3286 22.657H64.4548V28.5896Z" fill="#7B92EE"/>
<path d="M71.2044 26.1401C71.2044 26.9593 71.0349 27.5859 70.6958 28.0199C70.3567 28.454 69.8603 28.671 69.2065 28.671C68.5609 28.671 68.0672 28.458 67.7254 28.0321C67.3836 27.6063 67.2087 26.9959 67.2005 26.2011V25.1106C67.2005 24.2832 67.3714 23.6552 67.7132 23.2266C68.0577 22.798 68.5528 22.5837 69.1984 22.5837C69.844 22.5837 70.3377 22.7967 70.6795 23.2226C71.0213 23.6458 71.1963 24.2547 71.2044 25.0496V26.1401ZM70.0285 24.9438C70.0285 24.4528 69.9607 24.0961 69.825 23.8736C69.6921 23.6485 69.4832 23.5359 69.1984 23.5359C68.9217 23.5359 68.7169 23.643 68.584 23.8573C68.4538 24.0689 68.3846 24.4012 68.3765 24.8542V26.2947C68.3765 26.7775 68.4416 27.137 68.5718 27.373C68.7047 27.6063 68.9163 27.7229 69.2065 27.7229C69.4941 27.7229 69.7016 27.6103 69.8291 27.3852C69.9566 27.16 70.0231 26.8155 70.0285 26.3516V24.9438Z" fill="#7B92EE"/>
<defs>
<linearGradient id="paint0_linear" x1="50.4257" y1="-24.9918" x2="50.4257" y2="100.253" gradientUnits="userSpaceOnUse">
<stop stop-color="#80A6F0"/>
<stop offset="1" stop-color="#546FFF"/>
</linearGradient>
</defs>
</svg>
