<svg width="101" height="101" viewBox="0 0 101 101" fill="none" xmlns="http://www.w3.org/2000/svg">
<path d="M100.504 50.8711C100.504 83.1162 97.4069 100.871 50.5039 100.871C3.60097 100.871 0.503906 81.9847 0.503906 50.8711C0.503906 19.7575 5.10961 0.871094 50.5039 0.871094C95.8982 0.871094 100.504 18.626 100.504 50.8711Z" fill="url(#paint0_linear)"/>
<rect x="49.2368" y="56.5889" width="25.8361" height="25.8361" rx="1.5" fill="url(#paint1_linear)" stroke="#159497"/>
<path d="M57.3861 70.9981C56.491 70.9981 55.8119 70.8676 55.3489 70.6065C54.9168 70.3455 54.7007 69.9841 54.7007 69.5223C54.7007 69.0604 54.9168 68.699 55.3489 68.438C55.8119 68.1569 56.491 68.0163 57.3861 68.0163H66.9241C67.8193 68.0163 68.4829 68.1569 68.9151 68.438C69.3781 68.699 69.6096 69.0604 69.6096 69.5223C69.6096 69.9841 69.3781 70.3455 68.9151 70.6065C68.4829 70.8676 67.8193 70.9981 66.9241 70.9981H57.3861Z" fill="#159497"/>
<path d="M65.1369 64.2891C65.1369 65.5242 64.1357 66.5254 62.9006 66.5254C61.6655 66.5254 60.6643 65.5242 60.6643 64.2891C60.6643 63.054 61.6655 62.0527 62.9006 62.0527C64.1357 62.0527 65.1369 63.054 65.1369 64.2891Z" fill="#159497"/>
<path d="M65.1369 74.7253C65.1369 75.9604 64.1357 76.9617 62.9006 76.9617C61.6655 76.9617 60.6643 75.9604 60.6643 74.7253C60.6643 73.4902 61.6655 72.489 62.9006 72.489C64.1357 72.489 65.1369 73.4902 65.1369 74.7253Z" fill="#159497"/>
<rect x="60.2829" y="19.4934" width="25.8361" height="25.8361" rx="1.5" transform="rotate(28.2052 60.2829 19.4934)" fill="url(#paint2_linear)" stroke="#159497"/>
<path d="M60.6546 36.0425C59.8657 35.6194 59.3289 35.1834 59.0443 34.7345C58.7868 34.3003 58.7672 33.8796 58.9855 33.4726C59.2038 33.0657 59.565 32.8493 60.0692 32.8235C60.6101 32.7946 61.275 32.9917 62.0639 33.4147L70.4693 37.9227C71.2582 38.3458 71.7766 38.7833 72.0246 39.2353C72.3092 39.6841 72.3424 40.1121 72.1242 40.5191C71.9059 40.926 71.531 41.1351 70.9996 41.1463C70.4954 41.1721 69.8489 40.9735 69.06 40.5504L60.6546 36.0425Z" fill="#159497"/>
<rect x="16.4375" y="23.7891" width="25.8361" height="25.8361" rx="1.5" fill="url(#paint3_linear)" stroke="#159497"/>
<path d="M35.3197 35.8122C35.6974 35.8122 36.0055 35.9414 36.244 36.1998C36.5025 36.4384 36.6317 36.7465 36.6317 37.1242C36.6317 37.5019 36.5025 37.8199 36.244 38.0784C36.0055 38.3169 35.6974 38.4362 35.3197 38.4362H30.6681V43.0579C30.6681 43.4356 30.5389 43.7537 30.2805 44.0121C30.0419 44.2705 29.7338 44.3997 29.3561 44.3997C28.9784 44.3997 28.6604 44.2705 28.402 44.0121C28.1634 43.7537 28.0441 43.4356 28.0441 43.0579V38.4362H23.3926C23.0149 38.4362 22.6968 38.3169 22.4384 38.0784C22.1998 37.8199 22.0806 37.5019 22.0806 37.1242C22.0806 36.7465 22.1998 36.4384 22.4384 36.1998C22.6968 35.9414 23.0149 35.8122 23.3926 35.8122H28.0441V31.1606C28.0441 30.7829 28.1634 30.4748 28.402 30.2363C28.6604 29.9778 28.9784 29.8486 29.3561 29.8486C29.7338 29.8486 30.0419 29.9778 30.2805 30.2363C30.5389 30.4748 30.6681 30.7829 30.6681 31.1606V35.8122H35.3197Z" fill="#159497"/>
<rect x="16.4375" y="56.5889" width="25.8361" height="25.8361" rx="1.5" fill="url(#paint4_linear)" stroke="#159497"/>
<path d="M35.7065 74.1588C36.0644 74.5166 36.2433 74.9241 36.2433 75.3813C36.2433 75.8186 36.0743 76.2162 35.7364 76.574C35.3984 76.912 35.0009 77.0809 34.5436 77.0809C34.0467 77.0809 33.6193 76.8722 33.2615 76.4548L29.0572 71.8032L24.8528 76.4548C24.4752 76.8523 24.0478 77.0511 23.5707 77.0511C23.1334 77.0511 22.7457 76.8821 22.4078 76.5442C22.0698 76.2063 21.9009 75.8186 21.9009 75.3813C21.9009 74.9241 22.0798 74.5166 22.4376 74.1588L26.791 69.4177L22.6761 64.9451C22.3183 64.5873 22.1394 64.1797 22.1394 63.7225C22.1394 63.2653 22.3084 62.8777 22.6463 62.5596C22.9843 62.2217 23.3719 62.0527 23.8092 62.0527C24.2863 62.0527 24.7137 62.2515 25.0914 62.6491L29.0572 67.0025L33.0229 62.6491C33.4006 62.2515 33.828 62.0527 34.3051 62.0527C34.7623 62.0527 35.1499 62.2217 35.468 62.5596C35.8059 62.8777 35.9749 63.2653 35.9749 63.7225C35.9749 64.1797 35.796 64.5873 35.4382 64.9451L31.3233 69.4177L35.7065 74.1588Z" fill="#159497"/>
<defs>
<linearGradient id="paint0_linear" x1="50.5039" y1="-24.3737" x2="50.5039" y2="112.116" gradientUnits="userSpaceOnUse">
<stop offset="0.135418" stop-color="#4DDEE1"/>
<stop offset="1" stop-color="#13BEC2"/>
</linearGradient>
<linearGradient id="paint1_linear" x1="62.1548" y1="56.0889" x2="62.1548" y2="82.9249" gradientUnits="userSpaceOnUse">
<stop stop-color="white"/>
<stop offset="1" stop-color="#C4C4C4"/>
</linearGradient>
<linearGradient id="paint2_linear" x1="73.4966" y1="18.8164" x2="73.4966" y2="45.6525" gradientUnits="userSpaceOnUse">
<stop stop-color="white"/>
<stop offset="1" stop-color="#E0E0E0"/>
</linearGradient>
<linearGradient id="paint3_linear" x1="29.3555" y1="23.2891" x2="29.3555" y2="50.1251" gradientUnits="userSpaceOnUse">
<stop stop-color="#FFFDFD"/>
<stop offset="1" stop-color="#C4C4C4"/>
</linearGradient>
<linearGradient id="paint4_linear" x1="29.3555" y1="56.0889" x2="29.3555" y2="82.9249" gradientUnits="userSpaceOnUse">
<stop stop-color="white"/>
<stop offset="1" stop-color="#C4C4C4"/>
</linearGradient>
</defs>
</svg>
