<svg width="91" height="91" viewBox="0 0 91 91" fill="none" xmlns="http://www.w3.org/2000/svg">
<path d="M90.9268 45.6445C90.9268 74.6651 88.1394 90.6445 45.9268 90.6445C3.71411 90.6445 0.926758 73.6468 0.926758 45.6445C0.926758 17.6423 5.07189 0.644531 45.9268 0.644531C86.7816 0.644531 90.9268 16.624 90.9268 45.6445Z" fill="url(#paint0_linear)"/>
<path d="M21.2981 64.7457L21.2977 64.7457C19.95 64.676 18.9263 63.5998 18.9263 62.3393V38.4057C18.9263 37.0317 20.1222 35.9112 21.5992 35.9948C24.1833 36.1418 28.0382 36.4817 32.0347 37.2684C36.0392 38.0566 40.1457 39.2859 43.2579 41.1911C43.5465 41.3678 43.7076 41.6642 43.7086 41.996C43.7086 41.9963 43.7086 41.9965 43.7086 41.9968L43.7086 68.4204C43.7086 69.1054 42.9385 69.6041 42.2335 69.249L42.0086 69.6955L42.2335 69.249C35.5726 65.894 25.9886 64.9917 21.2981 64.7457ZM48.5957 41.1911L48.5958 41.1911C51.7075 39.2859 55.8139 38.0564 59.8184 37.268C63.8149 36.4812 67.6698 36.1412 70.2534 35.9948C71.7302 35.9112 72.9265 37.0317 72.9273 38.406V62.3414C72.9273 63.6019 71.9036 64.6784 70.5556 64.7489L70.5555 64.7489C65.8661 64.9949 56.2875 65.8972 49.6278 69.2489C48.919 69.6055 48.1461 69.1049 48.1461 68.4172V42.014C48.1461 41.6757 48.3126 41.3644 48.5957 41.1911ZM45.9263 15.3652C51.3456 15.3652 55.7388 19.7584 55.7388 25.1777C55.7388 30.5971 51.3456 34.9902 45.9263 34.9902C40.5069 34.9902 36.1138 30.5971 36.1138 25.1777C36.1138 19.7584 40.5069 15.3652 45.9263 15.3652Z" fill="white" stroke="#0DA8AC"/>
<path d="M39.104 18.8154C37.5368 20.4771 36.5771 22.7114 36.5771 25.1685C36.5771 30.3007 40.7638 34.461 45.9284 34.461C49.4185 34.461 52.462 32.561 54.0687 29.7452C52.3625 31.5542 49.9363 32.6845 47.2443 32.6845C42.0797 32.6845 37.8931 28.5242 37.8931 23.3921C37.8931 21.7282 38.3332 20.1664 39.104 18.8154Z" fill="#E0E0E0"/>
<defs>
<linearGradient id="paint0_linear" x1="45.9268" y1="-22.0757" x2="45.9268" y2="90.6445" gradientUnits="userSpaceOnUse">
<stop stop-color="#4DDEE1"/>
<stop offset="0.921875" stop-color="#0EA8AC"/>
</linearGradient>
</defs>
</svg>
